<mxfile host="app.diagrams.net" modified="2023-08-12T12:39:38.487Z" agent="Mozilla/5.0 (Windows NT 10.0; Win64; x64) AppleWebKit/537.36 (KHTML, like Gecko) Chrome/115.0.0.0 Safari/537.36" etag="Ji23wrF9BeHr7haNPMbh" version="21.6.2" type="github">
  <diagram id="6a731a19-8d31-9384-78a2-239565b7b9f0" name="Page-1">
    <mxGraphModel dx="53" dy="438" grid="1" gridSize="8" guides="1" tooltips="1" connect="1" arrows="1" fold="1" page="1" pageScale="1" pageWidth="827" pageHeight="1169" background="none" math="0" shadow="0">
      <root>
        <mxCell id="0" />
        <mxCell id="1" parent="0" />
        <mxCell id="fX6GV5llEiNiRfODqwNP-2257" value="Internet" style="ellipse;shape=cloud;whiteSpace=wrap;html=1;" vertex="1" parent="1">
          <mxGeometry x="1440" y="720" width="180" height="80" as="geometry" />
        </mxCell>
        <mxCell id="fX6GV5llEiNiRfODqwNP-2261" value="" style="endArrow=classic;html=1;rounded=0;" edge="1" parent="1" source="fX6GV5llEiNiRfODqwNP-2257">
          <mxGeometry width="50" height="50" relative="1" as="geometry">
            <mxPoint x="1220" y="940" as="sourcePoint" />
            <mxPoint x="1240" y="760" as="targetPoint" />
          </mxGeometry>
        </mxCell>
        <mxCell id="fX6GV5llEiNiRfODqwNP-2262" value="" style="shape=mxgraph.cisco.routers.router;sketch=0;html=1;pointerEvents=1;dashed=0;fillColor=#036897;strokeColor=#ffffff;strokeWidth=2;verticalLabelPosition=bottom;verticalAlign=top;align=center;outlineConnect=0;" vertex="1" parent="1">
          <mxGeometry x="1140" y="728.5" width="98" height="63" as="geometry" />
        </mxCell>
        <mxCell id="fX6GV5llEiNiRfODqwNP-2263" value="" style="shape=mxgraph.cisco.routers.router;sketch=0;html=1;pointerEvents=1;dashed=0;fillColor=#036897;strokeColor=#ffffff;strokeWidth=2;verticalLabelPosition=bottom;verticalAlign=top;align=center;outlineConnect=0;" vertex="1" parent="1">
          <mxGeometry x="1490" y="880" width="100" height="53" as="geometry" />
        </mxCell>
        <mxCell id="fX6GV5llEiNiRfODqwNP-2264" value="" style="endArrow=classic;html=1;rounded=0;exitX=0.55;exitY=0.95;exitDx=0;exitDy=0;exitPerimeter=0;" edge="1" parent="1" source="fX6GV5llEiNiRfODqwNP-2257">
          <mxGeometry width="50" height="50" relative="1" as="geometry">
            <mxPoint x="1220" y="940" as="sourcePoint" />
            <mxPoint x="1540" y="880" as="targetPoint" />
          </mxGeometry>
        </mxCell>
        <mxCell id="fX6GV5llEiNiRfODqwNP-2265" value="" style="endArrow=classic;html=1;rounded=0;" edge="1" parent="1">
          <mxGeometry width="50" height="50" relative="1" as="geometry">
            <mxPoint x="1130" y="750" as="sourcePoint" />
            <mxPoint x="990" y="750" as="targetPoint" />
          </mxGeometry>
        </mxCell>
        <mxCell id="fX6GV5llEiNiRfODqwNP-2266" value="" style="endArrow=classic;html=1;rounded=0;" edge="1" parent="1">
          <mxGeometry width="50" height="50" relative="1" as="geometry">
            <mxPoint x="1540" y="940" as="sourcePoint" />
            <mxPoint x="1540" y="1020" as="targetPoint" />
            <Array as="points">
              <mxPoint x="1540" y="980" />
            </Array>
          </mxGeometry>
        </mxCell>
        <mxCell id="fX6GV5llEiNiRfODqwNP-2267" value="&#xa;&lt;span style=&quot;color: rgba(0, 0, 0, 0); font-family: g_d0_f3, sans-serif; font-size: 12px; font-style: normal; font-variant-ligatures: normal; font-variant-caps: normal; font-weight: 400; letter-spacing: normal; orphans: 2; text-align: start; text-indent: 0px; text-transform: none; widows: 2; word-spacing: 0px; -webkit-text-stroke-width: 0px; background-color: rgb(233, 235, 237); text-decoration-thickness: initial; text-decoration-style: initial; text-decoration-color: initial; float: none; display: inline !important;&quot;&gt;etwork Diagram employing Kerberos and Cloud Computing for Perth Branch&lt;/span&gt;&#xa;&#xa;" style="text;whiteSpace=wrap;html=1;" vertex="1" parent="1">
          <mxGeometry x="1280" y="110" width="440" height="40" as="geometry" />
        </mxCell>
        <mxCell id="fX6GV5llEiNiRfODqwNP-2268" value="" style="shape=mxgraph.cisco.switches.workgroup_switch;sketch=0;html=1;pointerEvents=1;dashed=0;fillColor=#036897;strokeColor=#ffffff;strokeWidth=2;verticalLabelPosition=bottom;verticalAlign=top;align=center;outlineConnect=0;" vertex="1" parent="1">
          <mxGeometry x="1490" y="1030" width="101" height="50" as="geometry" />
        </mxCell>
        <mxCell id="fX6GV5llEiNiRfODqwNP-2271" value="" style="shape=mxgraph.cisco.servers.fileserver;sketch=0;html=1;pointerEvents=1;dashed=0;fillColor=#036897;strokeColor=#ffffff;strokeWidth=2;verticalLabelPosition=bottom;verticalAlign=top;align=center;outlineConnect=0;" vertex="1" parent="1">
          <mxGeometry x="1288" y="1112" width="43" height="62" as="geometry" />
        </mxCell>
        <mxCell id="fX6GV5llEiNiRfODqwNP-2272" value="" style="shape=mxgraph.cisco.servers.fileserver;sketch=0;html=1;pointerEvents=1;dashed=0;fillColor=#036897;strokeColor=#ffffff;strokeWidth=2;verticalLabelPosition=bottom;verticalAlign=top;align=center;outlineConnect=0;" vertex="1" parent="1">
          <mxGeometry x="1245" y="1112" width="43" height="62" as="geometry" />
        </mxCell>
        <mxCell id="fX6GV5llEiNiRfODqwNP-2273" value="Router" style="text;html=1;align=center;verticalAlign=middle;resizable=0;points=[];autosize=1;strokeColor=none;fillColor=none;" vertex="1" parent="1">
          <mxGeometry x="1552" y="933" width="56" height="32" as="geometry" />
        </mxCell>
        <mxCell id="fX6GV5llEiNiRfODqwNP-2274" value="Switch" style="text;html=1;align=center;verticalAlign=middle;resizable=0;points=[];autosize=1;strokeColor=none;fillColor=none;" vertex="1" parent="1">
          <mxGeometry x="1576" y="1061" width="56" height="32" as="geometry" />
        </mxCell>
        <mxCell id="fX6GV5llEiNiRfODqwNP-2275" value="File server" style="text;html=1;align=center;verticalAlign=middle;resizable=0;points=[];autosize=1;strokeColor=none;fillColor=none;" vertex="1" parent="1">
          <mxGeometry x="1284" y="1181" width="80" height="32" as="geometry" />
        </mxCell>
        <mxCell id="fX6GV5llEiNiRfODqwNP-2276" value="Web server" style="text;html=1;align=center;verticalAlign=middle;resizable=0;points=[];autosize=1;strokeColor=none;fillColor=none;" vertex="1" parent="1">
          <mxGeometry x="1112" y="1174" width="80" height="32" as="geometry" />
        </mxCell>
        <mxCell id="fX6GV5llEiNiRfODqwNP-2278" value="" style="swimlane;startSize=0;" vertex="1" parent="1">
          <mxGeometry x="1232" y="1104" width="104" height="72" as="geometry" />
        </mxCell>
        <mxCell id="fX6GV5llEiNiRfODqwNP-2279" value="" style="swimlane;startSize=0;" vertex="1" parent="1">
          <mxGeometry x="1088" y="1104" width="128" height="72" as="geometry" />
        </mxCell>
        <mxCell id="fX6GV5llEiNiRfODqwNP-2280" value="" style="shape=mxgraph.cisco.servers.fileserver;sketch=0;html=1;pointerEvents=1;dashed=0;fillColor=#036897;strokeColor=#ffffff;strokeWidth=2;verticalLabelPosition=bottom;verticalAlign=top;align=center;outlineConnect=0;" vertex="1" parent="fX6GV5llEiNiRfODqwNP-2279">
          <mxGeometry x="72" y="8" width="43" height="62" as="geometry" />
        </mxCell>
        <mxCell id="fX6GV5llEiNiRfODqwNP-2282" value="" style="shape=mxgraph.cisco.servers.fileserver;sketch=0;html=1;pointerEvents=1;dashed=0;fillColor=#036897;strokeColor=#ffffff;strokeWidth=2;verticalLabelPosition=bottom;verticalAlign=top;align=center;outlineConnect=0;" vertex="1" parent="fX6GV5llEiNiRfODqwNP-2279">
          <mxGeometry x="24" y="8" width="43" height="62" as="geometry" />
        </mxCell>
        <mxCell id="fX6GV5llEiNiRfODqwNP-2281" value="" style="shape=mxgraph.cisco.servers.fileserver;sketch=0;html=1;pointerEvents=1;dashed=0;fillColor=#036897;strokeColor=#ffffff;strokeWidth=2;verticalLabelPosition=bottom;verticalAlign=top;align=center;outlineConnect=0;" vertex="1" parent="1">
          <mxGeometry x="960" y="1104" width="43" height="62" as="geometry" />
        </mxCell>
        <mxCell id="fX6GV5llEiNiRfODqwNP-2283" value="" style="shape=mxgraph.cisco.storage.relational_database;sketch=0;html=1;pointerEvents=1;dashed=0;fillColor=#036897;strokeColor=#ffffff;strokeWidth=2;verticalLabelPosition=bottom;verticalAlign=top;align=center;outlineConnect=0;" vertex="1" parent="1">
          <mxGeometry x="848" y="1032" width="66" height="53" as="geometry" />
        </mxCell>
        <mxCell id="fX6GV5llEiNiRfODqwNP-2284" value="" style="shape=mxgraph.cisco.servers.fileserver;sketch=0;html=1;pointerEvents=1;dashed=0;fillColor=#036897;strokeColor=#ffffff;strokeWidth=2;verticalLabelPosition=bottom;verticalAlign=top;align=center;outlineConnect=0;" vertex="1" parent="1">
          <mxGeometry x="856" y="1174" width="43" height="62" as="geometry" />
        </mxCell>
        <mxCell id="fX6GV5llEiNiRfODqwNP-2285" value="" style="endArrow=classic;html=1;rounded=0;entryX=1;entryY=0.5;entryDx=0;entryDy=0;entryPerimeter=0;exitX=0;exitY=0.5;exitDx=0;exitDy=0;" edge="1" parent="1" source="fX6GV5llEiNiRfODqwNP-2279" target="fX6GV5llEiNiRfODqwNP-2281">
          <mxGeometry width="50" height="50" relative="1" as="geometry">
            <mxPoint x="1080" y="1135" as="sourcePoint" />
            <mxPoint x="1058" y="1136" as="targetPoint" />
          </mxGeometry>
        </mxCell>
        <mxCell id="fX6GV5llEiNiRfODqwNP-2286" value="" style="endArrow=classic;html=1;rounded=0;entryX=0.727;entryY=1.057;entryDx=0;entryDy=0;entryPerimeter=0;" edge="1" parent="1" target="fX6GV5llEiNiRfODqwNP-2283">
          <mxGeometry width="50" height="50" relative="1" as="geometry">
            <mxPoint x="960" y="1136" as="sourcePoint" />
            <mxPoint x="1234" y="1184" as="targetPoint" />
            <Array as="points">
              <mxPoint x="960" y="1136" />
            </Array>
          </mxGeometry>
        </mxCell>
        <mxCell id="fX6GV5llEiNiRfODqwNP-2287" value="" style="endArrow=classic;html=1;rounded=0;" edge="1" parent="1" source="fX6GV5llEiNiRfODqwNP-2281" target="fX6GV5llEiNiRfODqwNP-2284">
          <mxGeometry width="50" height="50" relative="1" as="geometry">
            <mxPoint x="1184" y="1234" as="sourcePoint" />
            <mxPoint x="904" y="1200" as="targetPoint" />
            <Array as="points">
              <mxPoint x="920" y="1176" />
            </Array>
          </mxGeometry>
        </mxCell>
        <mxCell id="fX6GV5llEiNiRfODqwNP-2288" value="Autentication server" style="text;html=1;align=center;verticalAlign=middle;resizable=0;points=[];autosize=1;strokeColor=none;fillColor=none;" vertex="1" parent="1">
          <mxGeometry x="916" y="1173" width="128" height="32" as="geometry" />
        </mxCell>
        <mxCell id="fX6GV5llEiNiRfODqwNP-2289" value="Ticket - granting server" style="text;html=1;align=center;verticalAlign=middle;resizable=0;points=[];autosize=1;strokeColor=none;fillColor=none;" vertex="1" parent="1">
          <mxGeometry x="828" y="1253" width="144" height="32" as="geometry" />
        </mxCell>
        <mxCell id="fX6GV5llEiNiRfODqwNP-2290" value="Kerberos" style="text;html=1;align=center;verticalAlign=middle;resizable=0;points=[];autosize=1;strokeColor=none;fillColor=none;" vertex="1" parent="1">
          <mxGeometry x="904" y="1021" width="72" height="32" as="geometry" />
        </mxCell>
        <mxCell id="fX6GV5llEiNiRfODqwNP-2291" value="" style="shape=mxgraph.cisco.servers.fileserver;sketch=0;html=1;pointerEvents=1;dashed=0;fillColor=#036897;strokeColor=#ffffff;strokeWidth=2;verticalLabelPosition=bottom;verticalAlign=top;align=center;outlineConnect=0;" vertex="1" parent="1">
          <mxGeometry x="936" y="720" width="43" height="62" as="geometry" />
        </mxCell>
        <mxCell id="fX6GV5llEiNiRfODqwNP-2292" value="" style="shape=mxgraph.cisco.servers.fileserver;sketch=0;html=1;pointerEvents=1;dashed=0;fillColor=#036897;strokeColor=#ffffff;strokeWidth=2;verticalLabelPosition=bottom;verticalAlign=top;align=center;outlineConnect=0;" vertex="1" parent="1">
          <mxGeometry x="893" y="720" width="43" height="62" as="geometry" />
        </mxCell>
        <mxCell id="fX6GV5llEiNiRfODqwNP-2293" value="" style="swimlane;startSize=0;" vertex="1" parent="1">
          <mxGeometry x="872" y="704" width="112" height="80" as="geometry" />
        </mxCell>
        <mxCell id="fX6GV5llEiNiRfODqwNP-2294" value="Cloud Prototype Server" style="text;html=1;align=center;verticalAlign=middle;resizable=0;points=[];autosize=1;strokeColor=none;fillColor=none;" vertex="1" parent="1">
          <mxGeometry x="860" y="797" width="144" height="32" as="geometry" />
        </mxCell>
        <mxCell id="fX6GV5llEiNiRfODqwNP-2296" value="" style="endArrow=classic;html=1;rounded=0;exitX=0.5;exitY=0.98;exitDx=0;exitDy=0;exitPerimeter=0;" edge="1" parent="1" source="fX6GV5llEiNiRfODqwNP-2268" target="fX6GV5llEiNiRfODqwNP-2297">
          <mxGeometry width="50" height="50" relative="1" as="geometry">
            <mxPoint x="1520" y="1210" as="sourcePoint" />
            <mxPoint x="1544" y="1160" as="targetPoint" />
          </mxGeometry>
        </mxCell>
        <mxCell id="fX6GV5llEiNiRfODqwNP-2299" value="" style="swimlane;startSize=0;" vertex="1" parent="1">
          <mxGeometry x="1456" y="1160" width="208" height="72" as="geometry" />
        </mxCell>
        <mxCell id="fX6GV5llEiNiRfODqwNP-2297" value="" style="shape=mxgraph.cisco.computers_and_peripherals.workstation;sketch=0;html=1;pointerEvents=1;dashed=0;fillColor=#036897;strokeColor=#ffffff;strokeWidth=2;verticalLabelPosition=bottom;verticalAlign=top;align=center;outlineConnect=0;" vertex="1" parent="fX6GV5llEiNiRfODqwNP-2299">
          <mxGeometry x="34" y="5" width="83" height="62" as="geometry" />
        </mxCell>
        <mxCell id="fX6GV5llEiNiRfODqwNP-2298" value="" style="shape=mxgraph.cisco.computers_and_peripherals.workstation;sketch=0;html=1;pointerEvents=1;dashed=0;fillColor=#036897;strokeColor=#ffffff;strokeWidth=2;verticalLabelPosition=bottom;verticalAlign=top;align=center;outlineConnect=0;" vertex="1" parent="fX6GV5llEiNiRfODqwNP-2299">
          <mxGeometry x="115" y="5" width="83" height="62" as="geometry" />
        </mxCell>
        <mxCell id="fX6GV5llEiNiRfODqwNP-2302" value="Workstation" style="text;html=1;align=center;verticalAlign=middle;resizable=0;points=[];autosize=1;strokeColor=none;fillColor=none;" vertex="1" parent="1">
          <mxGeometry x="1500" y="1245" width="80" height="32" as="geometry" />
        </mxCell>
        <mxCell id="fX6GV5llEiNiRfODqwNP-2303" value="" style="endArrow=classic;html=1;rounded=0;" edge="1" parent="1">
          <mxGeometry width="50" height="50" relative="1" as="geometry">
            <mxPoint x="1448" y="1184" as="sourcePoint" />
            <mxPoint x="1344" y="1152" as="targetPoint" />
          </mxGeometry>
        </mxCell>
      </root>
    </mxGraphModel>
  </diagram>
</mxfile>
